<svg width="278" height="149" viewBox="0 0 278 149" fill="none" xmlns="http://www.w3.org/2000/svg">
<g clip-path="url(#clip0_3417_4277)">
<rect width="278" height="292" fill="#D3BDEF"/>
</g>
<g clip-path="url(#clip1_3417_4277)">
<path d="M31.1265 129.544V163H26.7585V129.544H31.1265ZM51.387 136.216C54.587 136.216 57.179 137.192 59.163 139.144C61.147 141.064 62.139 143.848 62.139 147.496V163H57.819V148.12C57.819 145.496 57.163 143.496 55.851 142.12C54.539 140.712 52.747 140.008 50.475 140.008C48.171 140.008 46.331 140.728 44.955 142.168C43.611 143.608 42.939 145.704 42.939 148.456V163H38.571V136.696H42.939V140.44C43.803 139.096 44.971 138.056 46.443 137.32C47.947 136.584 49.595 136.216 51.387 136.216ZM67.6421 149.752C67.6421 147.064 68.1861 144.712 69.2741 142.696C70.3621 140.648 71.8501 139.064 73.7381 137.944C75.6581 136.824 77.8021 136.264 80.1701 136.264C82.2181 136.264 84.1221 136.744 85.8821 137.704C87.6421 138.632 88.9861 139.864 89.9141 141.4V127.48H94.3301V163H89.9141V158.056C89.0501 159.624 87.7701 160.92 86.0741 161.944C84.3781 162.936 82.3941 163.432 80.1221 163.432C77.7861 163.432 75.6581 162.856 73.7381 161.704C71.8501 160.552 70.3621 158.936 69.2741 156.856C68.1861 154.776 67.6421 152.408 67.6421 149.752ZM89.9141 149.8C89.9141 147.816 89.5141 146.088 88.7141 144.616C87.9141 143.144 86.8261 142.024 85.4501 141.256C84.1061 140.456 82.6181 140.056 80.9861 140.056C79.3541 140.056 77.8661 140.44 76.5221 141.208C75.1781 141.976 74.1061 143.096 73.3061 144.568C72.5061 146.04 72.1061 147.768 72.1061 149.752C72.1061 151.768 72.5061 153.528 73.3061 155.032C74.1061 156.504 75.1781 157.64 76.5221 158.44C77.8661 159.208 79.3541 159.592 80.9861 159.592C82.6181 159.592 84.1061 159.208 85.4501 158.44C86.8261 157.64 87.9141 156.504 88.7141 155.032C89.5141 153.528 89.9141 151.784 89.9141 149.8ZM103.968 132.424C103.136 132.424 102.432 132.136 101.856 131.56C101.28 130.984 100.992 130.28 100.992 129.448C100.992 128.616 101.28 127.912 101.856 127.336C102.432 126.76 103.136 126.472 103.968 126.472C104.768 126.472 105.44 126.76 105.984 127.336C106.56 127.912 106.848 128.616 106.848 129.448C106.848 130.28 106.56 130.984 105.984 131.56C105.44 132.136 104.768 132.424 103.968 132.424ZM106.08 136.696V163H101.712V136.696H106.08ZM123.316 158.968L131.476 136.696H136.132L125.812 163H120.724L110.404 136.696H115.108L123.316 158.968ZM142.686 132.424C141.854 132.424 141.15 132.136 140.574 131.56C139.998 130.984 139.71 130.28 139.71 129.448C139.71 128.616 139.998 127.912 140.574 127.336C141.15 126.76 141.854 126.472 142.686 126.472C143.486 126.472 144.158 126.76 144.702 127.336C145.278 127.912 145.566 128.616 145.566 129.448C145.566 130.28 145.278 130.984 144.702 131.56C144.158 132.136 143.486 132.424 142.686 132.424ZM144.798 136.696V163H140.43V136.696H144.798ZM150.611 149.752C150.611 147.064 151.155 144.712 152.243 142.696C153.331 140.648 154.819 139.064 156.707 137.944C158.627 136.824 160.771 136.264 163.139 136.264C165.187 136.264 167.091 136.744 168.851 137.704C170.611 138.632 171.955 139.864 172.883 141.4V127.48H177.299V163H172.883V158.056C172.019 159.624 170.739 160.92 169.043 161.944C167.347 162.936 165.363 163.432 163.091 163.432C160.755 163.432 158.627 162.856 156.707 161.704C154.819 160.552 153.331 158.936 152.243 156.856C151.155 154.776 150.611 152.408 150.611 149.752ZM172.883 149.8C172.883 147.816 172.483 146.088 171.683 144.616C170.883 143.144 169.795 142.024 168.419 141.256C167.075 140.456 165.587 140.056 163.955 140.056C162.323 140.056 160.835 140.44 159.491 141.208C158.147 141.976 157.075 143.096 156.275 144.568C155.475 146.04 155.075 147.768 155.075 149.752C155.075 151.768 155.475 153.528 156.275 155.032C157.075 156.504 158.147 157.64 159.491 158.44C160.835 159.208 162.323 159.592 163.955 159.592C165.587 159.592 167.075 159.208 168.419 158.44C169.795 157.64 170.883 156.504 171.683 155.032C172.483 153.528 172.883 151.784 172.883 149.8ZM208.008 136.696V163H203.64V159.112C202.808 160.456 201.64 161.512 200.136 162.28C198.664 163.016 197.032 163.384 195.24 163.384C193.192 163.384 191.352 162.968 189.72 162.136C188.088 161.272 186.792 159.992 185.832 158.296C184.904 156.6 184.44 154.536 184.44 152.104V136.696H188.76V151.528C188.76 154.12 189.416 156.12 190.728 157.528C192.04 158.904 193.832 159.592 196.104 159.592C198.44 159.592 200.28 158.872 201.624 157.432C202.968 155.992 203.64 153.896 203.64 151.144V136.696H208.008ZM213.752 149.752C213.752 147.064 214.296 144.712 215.384 142.696C216.472 140.648 217.96 139.064 219.848 137.944C221.768 136.824 223.896 136.264 226.232 136.264C228.536 136.264 230.536 136.76 232.232 137.752C233.928 138.744 235.192 139.992 236.024 141.496V136.696H240.44V163H236.024V158.104C235.16 159.64 233.864 160.92 232.136 161.944C230.44 162.936 228.456 163.432 226.184 163.432C223.848 163.432 221.736 162.856 219.848 161.704C217.96 160.552 216.472 158.936 215.384 156.856C214.296 154.776 213.752 152.408 213.752 149.752ZM236.024 149.8C236.024 147.816 235.624 146.088 234.824 144.616C234.024 143.144 232.936 142.024 231.56 141.256C230.216 140.456 228.728 140.056 227.096 140.056C225.464 140.056 223.976 140.44 222.632 141.208C221.288 141.976 220.216 143.096 219.416 144.568C218.616 146.04 218.216 147.768 218.216 149.752C218.216 151.768 218.616 153.528 219.416 155.032C220.216 156.504 221.288 157.64 222.632 158.44C223.976 159.208 225.464 159.592 227.096 159.592C228.728 159.592 230.216 159.208 231.56 158.44C232.936 157.64 234.024 156.504 234.824 155.032C235.624 153.528 236.024 151.784 236.024 149.8ZM252.189 127.48V163H247.821V127.48H252.189Z" fill="black"/>
</g>
<defs>
<clipPath id="clip0_3417_4277">
<path d="M0 20C0 8.9543 8.95431 0 20 0H258C269.046 0 278 8.9543 278 20V149H0V20Z" fill="white"/>
</clipPath>
<clipPath id="clip1_3417_4277">
<rect width="233" height="39" fill="white" transform="translate(23 110)"/>
</clipPath>
</defs>
</svg>
