<svg width="278" height="143" viewBox="0 0 278 143" fill="none" xmlns="http://www.w3.org/2000/svg">
<g clip-path="url(#clip0_3417_4276)">
<rect y="-149" width="278" height="292" fill="#EDDEFF"/>
</g>
<g clip-path="url(#clip1_3417_4276)">
<path d="M31.1265 -19.456V14H26.7585V-19.456H31.1265ZM51.387 -12.784C54.587 -12.784 57.179 -11.808 59.163 -9.856C61.147 -7.936 62.139 -5.152 62.139 -1.504V14H57.819V-0.88C57.819 -3.504 57.163 -5.504 55.851 -6.88C54.539 -8.288 52.747 -8.992 50.475 -8.992C48.171 -8.992 46.331 -8.272 44.955 -6.832C43.611 -5.392 42.939 -3.296 42.939 -0.544V14H38.571V-12.304H42.939V-8.56C43.803 -9.904 44.971 -10.944 46.443 -11.68C47.947 -12.416 49.595 -12.784 51.387 -12.784ZM67.6421 0.751999C67.6421 -1.936 68.1861 -4.288 69.2741 -6.304C70.3621 -8.352 71.8501 -9.936 73.7381 -11.056C75.6581 -12.176 77.8021 -12.736 80.1701 -12.736C82.2181 -12.736 84.1221 -12.256 85.8821 -11.296C87.6421 -10.368 88.9861 -9.136 89.9141 -7.6V-21.52H94.3301V14H89.9141V9.056C89.0501 10.624 87.7701 11.92 86.0741 12.944C84.3781 13.936 82.3941 14.432 80.1221 14.432C77.7861 14.432 75.6581 13.856 73.7381 12.704C71.8501 11.552 70.3621 9.936 69.2741 7.856C68.1861 5.776 67.6421 3.408 67.6421 0.751999ZM89.9141 0.8C89.9141 -1.184 89.5141 -2.912 88.7141 -4.384C87.9141 -5.856 86.8261 -6.976 85.4501 -7.744C84.1061 -8.544 82.6181 -8.944 80.9861 -8.944C79.3541 -8.944 77.8661 -8.56 76.5221 -7.792C75.1781 -7.024 74.1061 -5.904 73.3061 -4.432C72.5061 -2.96 72.1061 -1.232 72.1061 0.751999C72.1061 2.768 72.5061 4.528 73.3061 6.032C74.1061 7.504 75.1781 8.64 76.5221 9.44C77.8661 10.208 79.3541 10.592 80.9861 10.592C82.6181 10.592 84.1061 10.208 85.4501 9.44C86.8261 8.64 87.9141 7.504 88.7141 6.032C89.5141 4.528 89.9141 2.784 89.9141 0.8ZM103.968 -16.576C103.136 -16.576 102.432 -16.864 101.856 -17.44C101.28 -18.016 100.992 -18.72 100.992 -19.552C100.992 -20.384 101.28 -21.088 101.856 -21.664C102.432 -22.24 103.136 -22.528 103.968 -22.528C104.768 -22.528 105.44 -22.24 105.984 -21.664C106.56 -21.088 106.848 -20.384 106.848 -19.552C106.848 -18.72 106.56 -18.016 105.984 -17.44C105.44 -16.864 104.768 -16.576 103.968 -16.576ZM106.08 -12.304V14H101.712V-12.304H106.08ZM123.316 9.968L131.476 -12.304H136.132L125.812 14H120.724L110.404 -12.304H115.108L123.316 9.968ZM142.686 -16.576C141.854 -16.576 141.15 -16.864 140.574 -17.44C139.998 -18.016 139.71 -18.72 139.71 -19.552C139.71 -20.384 139.998 -21.088 140.574 -21.664C141.15 -22.24 141.854 -22.528 142.686 -22.528C143.486 -22.528 144.158 -22.24 144.702 -21.664C145.278 -21.088 145.566 -20.384 145.566 -19.552C145.566 -18.72 145.278 -18.016 144.702 -17.44C144.158 -16.864 143.486 -16.576 142.686 -16.576ZM144.798 -12.304V14H140.43V-12.304H144.798ZM150.611 0.751999C150.611 -1.936 151.155 -4.288 152.243 -6.304C153.331 -8.352 154.819 -9.936 156.707 -11.056C158.627 -12.176 160.771 -12.736 163.139 -12.736C165.187 -12.736 167.091 -12.256 168.851 -11.296C170.611 -10.368 171.955 -9.136 172.883 -7.6V-21.52H177.299V14H172.883V9.056C172.019 10.624 170.739 11.92 169.043 12.944C167.347 13.936 165.363 14.432 163.091 14.432C160.755 14.432 158.627 13.856 156.707 12.704C154.819 11.552 153.331 9.936 152.243 7.856C151.155 5.776 150.611 3.408 150.611 0.751999ZM172.883 0.8C172.883 -1.184 172.483 -2.912 171.683 -4.384C170.883 -5.856 169.795 -6.976 168.419 -7.744C167.075 -8.544 165.587 -8.944 163.955 -8.944C162.323 -8.944 160.835 -8.56 159.491 -7.792C158.147 -7.024 157.075 -5.904 156.275 -4.432C155.475 -2.96 155.075 -1.232 155.075 0.751999C155.075 2.768 155.475 4.528 156.275 6.032C157.075 7.504 158.147 8.64 159.491 9.44C160.835 10.208 162.323 10.592 163.955 10.592C165.587 10.592 167.075 10.208 168.419 9.44C169.795 8.64 170.883 7.504 171.683 6.032C172.483 4.528 172.883 2.784 172.883 0.8ZM208.008 -12.304V14H203.64V10.112C202.808 11.456 201.64 12.512 200.136 13.28C198.664 14.016 197.032 14.384 195.24 14.384C193.192 14.384 191.352 13.968 189.72 13.136C188.088 12.272 186.792 10.992 185.832 9.296C184.904 7.6 184.44 5.536 184.44 3.104V-12.304H188.76V2.528C188.76 5.12 189.416 7.12 190.728 8.528C192.04 9.904 193.832 10.592 196.104 10.592C198.44 10.592 200.28 9.872 201.624 8.432C202.968 6.992 203.64 4.896 203.64 2.144V-12.304H208.008ZM213.752 0.751999C213.752 -1.936 214.296 -4.288 215.384 -6.304C216.472 -8.352 217.96 -9.936 219.848 -11.056C221.768 -12.176 223.896 -12.736 226.232 -12.736C228.536 -12.736 230.536 -12.24 232.232 -11.248C233.928 -10.256 235.192 -9.008 236.024 -7.504V-12.304H240.44V14H236.024V9.104C235.16 10.64 233.864 11.92 232.136 12.944C230.44 13.936 228.456 14.432 226.184 14.432C223.848 14.432 221.736 13.856 219.848 12.704C217.96 11.552 216.472 9.936 215.384 7.856C214.296 5.776 213.752 3.408 213.752 0.751999ZM236.024 0.8C236.024 -1.184 235.624 -2.912 234.824 -4.384C234.024 -5.856 232.936 -6.976 231.56 -7.744C230.216 -8.544 228.728 -8.944 227.096 -8.944C225.464 -8.944 223.976 -8.56 222.632 -7.792C221.288 -7.024 220.216 -5.904 219.416 -4.432C218.616 -2.96 218.216 -1.232 218.216 0.751999C218.216 2.768 218.616 4.528 219.416 6.032C220.216 7.504 221.288 8.64 222.632 9.44C223.976 10.208 225.464 10.592 227.096 10.592C228.728 10.592 230.216 10.208 231.56 9.44C232.936 8.64 234.024 7.504 234.824 6.032C235.624 4.528 236.024 2.784 236.024 0.8ZM252.189 -21.52V14H247.821V-21.52H252.189Z" fill="black"/>
</g>
<defs>
<clipPath id="clip0_3417_4276">
<path d="M0 0H278V123C278 134.046 269.046 143 258 143H20C8.95431 143 0 134.046 0 123V0Z" fill="white"/>
</clipPath>
<clipPath id="clip1_3417_4276">
<rect width="233" height="33" fill="white" transform="translate(23)"/>
</clipPath>
</defs>
</svg>
